G75*
%MOIN*%
%OFA0B0*%
%FSLAX25Y25*%
%IPPOS*%
%LPD*%
%AMOC8*
5,1,8,0,0,1.08239X$1,22.5*
%
%ADD10C,0.00004*%
%ADD11C,0.00394*%
%ADD12C,0.00600*%
%ADD13R,0.11811X0.06299*%
%ADD14R,0.06299X0.07087*%
%ADD15R,0.06299X0.07098*%
%ADD16R,0.06299X0.11811*%
%ADD17R,0.02992X0.05118*%
%ADD18R,0.07098X0.06299*%
%ADD19R,0.06693X0.14567*%
%ADD20R,0.07087X0.06299*%
%ADD21R,0.05906X0.07874*%
%ADD22R,0.14961X0.07874*%
%ADD23R,0.05512X0.04331*%
%ADD24R,0.04331X0.05512*%
D10*
X0078851Y0183717D02*
X0078853Y0183857D01*
X0078859Y0183997D01*
X0078869Y0184136D01*
X0078883Y0184275D01*
X0078901Y0184414D01*
X0078922Y0184552D01*
X0078948Y0184690D01*
X0078978Y0184827D01*
X0079011Y0184962D01*
X0079049Y0185097D01*
X0079090Y0185231D01*
X0079135Y0185364D01*
X0079183Y0185495D01*
X0079236Y0185624D01*
X0079292Y0185753D01*
X0079351Y0185879D01*
X0079415Y0186004D01*
X0079481Y0186127D01*
X0079552Y0186248D01*
X0079625Y0186367D01*
X0079702Y0186484D01*
X0079783Y0186598D01*
X0079866Y0186710D01*
X0079953Y0186820D01*
X0080043Y0186928D01*
X0080135Y0187032D01*
X0080231Y0187134D01*
X0080330Y0187234D01*
X0080431Y0187330D01*
X0080535Y0187424D01*
X0080642Y0187514D01*
X0080751Y0187601D01*
X0080863Y0187686D01*
X0080977Y0187767D01*
X0081093Y0187845D01*
X0081211Y0187919D01*
X0081332Y0187990D01*
X0081454Y0188058D01*
X0081579Y0188122D01*
X0081705Y0188183D01*
X0081832Y0188240D01*
X0081962Y0188293D01*
X0082093Y0188343D01*
X0082225Y0188388D01*
X0082358Y0188431D01*
X0082493Y0188469D01*
X0082628Y0188503D01*
X0082765Y0188534D01*
X0082902Y0188561D01*
X0083040Y0188583D01*
X0083179Y0188602D01*
X0083318Y0188617D01*
X0083457Y0188628D01*
X0083597Y0188635D01*
X0083737Y0188638D01*
X0083877Y0188637D01*
X0084017Y0188632D01*
X0084156Y0188623D01*
X0084296Y0188610D01*
X0084435Y0188593D01*
X0084573Y0188572D01*
X0084711Y0188548D01*
X0084848Y0188519D01*
X0084984Y0188487D01*
X0085119Y0188450D01*
X0085253Y0188410D01*
X0085386Y0188366D01*
X0085517Y0188318D01*
X0085647Y0188267D01*
X0085776Y0188212D01*
X0085903Y0188153D01*
X0086028Y0188090D01*
X0086151Y0188025D01*
X0086273Y0187955D01*
X0086392Y0187882D01*
X0086510Y0187806D01*
X0086625Y0187727D01*
X0086738Y0187644D01*
X0086848Y0187558D01*
X0086956Y0187469D01*
X0087061Y0187377D01*
X0087164Y0187282D01*
X0087264Y0187184D01*
X0087361Y0187084D01*
X0087455Y0186980D01*
X0087547Y0186874D01*
X0087635Y0186766D01*
X0087720Y0186655D01*
X0087802Y0186541D01*
X0087881Y0186425D01*
X0087956Y0186308D01*
X0088028Y0186188D01*
X0088096Y0186066D01*
X0088161Y0185942D01*
X0088223Y0185816D01*
X0088281Y0185689D01*
X0088335Y0185560D01*
X0088386Y0185429D01*
X0088432Y0185297D01*
X0088475Y0185164D01*
X0088515Y0185030D01*
X0088550Y0184895D01*
X0088582Y0184758D01*
X0088609Y0184621D01*
X0088633Y0184483D01*
X0088653Y0184345D01*
X0088669Y0184206D01*
X0088681Y0184066D01*
X0088689Y0183927D01*
X0088693Y0183787D01*
X0088693Y0183647D01*
X0088689Y0183507D01*
X0088681Y0183368D01*
X0088669Y0183228D01*
X0088653Y0183089D01*
X0088633Y0182951D01*
X0088609Y0182813D01*
X0088582Y0182676D01*
X0088550Y0182539D01*
X0088515Y0182404D01*
X0088475Y0182270D01*
X0088432Y0182137D01*
X0088386Y0182005D01*
X0088335Y0181874D01*
X0088281Y0181745D01*
X0088223Y0181618D01*
X0088161Y0181492D01*
X0088096Y0181368D01*
X0088028Y0181246D01*
X0087956Y0181126D01*
X0087881Y0181009D01*
X0087802Y0180893D01*
X0087720Y0180779D01*
X0087635Y0180668D01*
X0087547Y0180560D01*
X0087455Y0180454D01*
X0087361Y0180350D01*
X0087264Y0180250D01*
X0087164Y0180152D01*
X0087061Y0180057D01*
X0086956Y0179965D01*
X0086848Y0179876D01*
X0086738Y0179790D01*
X0086625Y0179707D01*
X0086510Y0179628D01*
X0086392Y0179552D01*
X0086273Y0179479D01*
X0086151Y0179409D01*
X0086028Y0179344D01*
X0085903Y0179281D01*
X0085776Y0179222D01*
X0085647Y0179167D01*
X0085517Y0179116D01*
X0085386Y0179068D01*
X0085253Y0179024D01*
X0085119Y0178984D01*
X0084984Y0178947D01*
X0084848Y0178915D01*
X0084711Y0178886D01*
X0084573Y0178862D01*
X0084435Y0178841D01*
X0084296Y0178824D01*
X0084156Y0178811D01*
X0084017Y0178802D01*
X0083877Y0178797D01*
X0083737Y0178796D01*
X0083597Y0178799D01*
X0083457Y0178806D01*
X0083318Y0178817D01*
X0083179Y0178832D01*
X0083040Y0178851D01*
X0082902Y0178873D01*
X0082765Y0178900D01*
X0082628Y0178931D01*
X0082493Y0178965D01*
X0082358Y0179003D01*
X0082225Y0179046D01*
X0082093Y0179091D01*
X0081962Y0179141D01*
X0081832Y0179194D01*
X0081705Y0179251D01*
X0081579Y0179312D01*
X0081454Y0179376D01*
X0081332Y0179444D01*
X0081211Y0179515D01*
X0081093Y0179589D01*
X0080977Y0179667D01*
X0080863Y0179748D01*
X0080751Y0179833D01*
X0080642Y0179920D01*
X0080535Y0180010D01*
X0080431Y0180104D01*
X0080330Y0180200D01*
X0080231Y0180300D01*
X0080135Y0180402D01*
X0080043Y0180506D01*
X0079953Y0180614D01*
X0079866Y0180724D01*
X0079783Y0180836D01*
X0079702Y0180950D01*
X0079625Y0181067D01*
X0079552Y0181186D01*
X0079481Y0181307D01*
X0079415Y0181430D01*
X0079351Y0181555D01*
X0079292Y0181681D01*
X0079236Y0181810D01*
X0079183Y0181939D01*
X0079135Y0182070D01*
X0079090Y0182203D01*
X0079049Y0182337D01*
X0079011Y0182472D01*
X0078978Y0182607D01*
X0078948Y0182744D01*
X0078922Y0182882D01*
X0078901Y0183020D01*
X0078883Y0183159D01*
X0078869Y0183298D01*
X0078859Y0183437D01*
X0078853Y0183577D01*
X0078851Y0183717D01*
X0078851Y0254583D02*
X0078853Y0254723D01*
X0078859Y0254863D01*
X0078869Y0255002D01*
X0078883Y0255141D01*
X0078901Y0255280D01*
X0078922Y0255418D01*
X0078948Y0255556D01*
X0078978Y0255693D01*
X0079011Y0255828D01*
X0079049Y0255963D01*
X0079090Y0256097D01*
X0079135Y0256230D01*
X0079183Y0256361D01*
X0079236Y0256490D01*
X0079292Y0256619D01*
X0079351Y0256745D01*
X0079415Y0256870D01*
X0079481Y0256993D01*
X0079552Y0257114D01*
X0079625Y0257233D01*
X0079702Y0257350D01*
X0079783Y0257464D01*
X0079866Y0257576D01*
X0079953Y0257686D01*
X0080043Y0257794D01*
X0080135Y0257898D01*
X0080231Y0258000D01*
X0080330Y0258100D01*
X0080431Y0258196D01*
X0080535Y0258290D01*
X0080642Y0258380D01*
X0080751Y0258467D01*
X0080863Y0258552D01*
X0080977Y0258633D01*
X0081093Y0258711D01*
X0081211Y0258785D01*
X0081332Y0258856D01*
X0081454Y0258924D01*
X0081579Y0258988D01*
X0081705Y0259049D01*
X0081832Y0259106D01*
X0081962Y0259159D01*
X0082093Y0259209D01*
X0082225Y0259254D01*
X0082358Y0259297D01*
X0082493Y0259335D01*
X0082628Y0259369D01*
X0082765Y0259400D01*
X0082902Y0259427D01*
X0083040Y0259449D01*
X0083179Y0259468D01*
X0083318Y0259483D01*
X0083457Y0259494D01*
X0083597Y0259501D01*
X0083737Y0259504D01*
X0083877Y0259503D01*
X0084017Y0259498D01*
X0084156Y0259489D01*
X0084296Y0259476D01*
X0084435Y0259459D01*
X0084573Y0259438D01*
X0084711Y0259414D01*
X0084848Y0259385D01*
X0084984Y0259353D01*
X0085119Y0259316D01*
X0085253Y0259276D01*
X0085386Y0259232D01*
X0085517Y0259184D01*
X0085647Y0259133D01*
X0085776Y0259078D01*
X0085903Y0259019D01*
X0086028Y0258956D01*
X0086151Y0258891D01*
X0086273Y0258821D01*
X0086392Y0258748D01*
X0086510Y0258672D01*
X0086625Y0258593D01*
X0086738Y0258510D01*
X0086848Y0258424D01*
X0086956Y0258335D01*
X0087061Y0258243D01*
X0087164Y0258148D01*
X0087264Y0258050D01*
X0087361Y0257950D01*
X0087455Y0257846D01*
X0087547Y0257740D01*
X0087635Y0257632D01*
X0087720Y0257521D01*
X0087802Y0257407D01*
X0087881Y0257291D01*
X0087956Y0257174D01*
X0088028Y0257054D01*
X0088096Y0256932D01*
X0088161Y0256808D01*
X0088223Y0256682D01*
X0088281Y0256555D01*
X0088335Y0256426D01*
X0088386Y0256295D01*
X0088432Y0256163D01*
X0088475Y0256030D01*
X0088515Y0255896D01*
X0088550Y0255761D01*
X0088582Y0255624D01*
X0088609Y0255487D01*
X0088633Y0255349D01*
X0088653Y0255211D01*
X0088669Y0255072D01*
X0088681Y0254932D01*
X0088689Y0254793D01*
X0088693Y0254653D01*
X0088693Y0254513D01*
X0088689Y0254373D01*
X0088681Y0254234D01*
X0088669Y0254094D01*
X0088653Y0253955D01*
X0088633Y0253817D01*
X0088609Y0253679D01*
X0088582Y0253542D01*
X0088550Y0253405D01*
X0088515Y0253270D01*
X0088475Y0253136D01*
X0088432Y0253003D01*
X0088386Y0252871D01*
X0088335Y0252740D01*
X0088281Y0252611D01*
X0088223Y0252484D01*
X0088161Y0252358D01*
X0088096Y0252234D01*
X0088028Y0252112D01*
X0087956Y0251992D01*
X0087881Y0251875D01*
X0087802Y0251759D01*
X0087720Y0251645D01*
X0087635Y0251534D01*
X0087547Y0251426D01*
X0087455Y0251320D01*
X0087361Y0251216D01*
X0087264Y0251116D01*
X0087164Y0251018D01*
X0087061Y0250923D01*
X0086956Y0250831D01*
X0086848Y0250742D01*
X0086738Y0250656D01*
X0086625Y0250573D01*
X0086510Y0250494D01*
X0086392Y0250418D01*
X0086273Y0250345D01*
X0086151Y0250275D01*
X0086028Y0250210D01*
X0085903Y0250147D01*
X0085776Y0250088D01*
X0085647Y0250033D01*
X0085517Y0249982D01*
X0085386Y0249934D01*
X0085253Y0249890D01*
X0085119Y0249850D01*
X0084984Y0249813D01*
X0084848Y0249781D01*
X0084711Y0249752D01*
X0084573Y0249728D01*
X0084435Y0249707D01*
X0084296Y0249690D01*
X0084156Y0249677D01*
X0084017Y0249668D01*
X0083877Y0249663D01*
X0083737Y0249662D01*
X0083597Y0249665D01*
X0083457Y0249672D01*
X0083318Y0249683D01*
X0083179Y0249698D01*
X0083040Y0249717D01*
X0082902Y0249739D01*
X0082765Y0249766D01*
X0082628Y0249797D01*
X0082493Y0249831D01*
X0082358Y0249869D01*
X0082225Y0249912D01*
X0082093Y0249957D01*
X0081962Y0250007D01*
X0081832Y0250060D01*
X0081705Y0250117D01*
X0081579Y0250178D01*
X0081454Y0250242D01*
X0081332Y0250310D01*
X0081211Y0250381D01*
X0081093Y0250455D01*
X0080977Y0250533D01*
X0080863Y0250614D01*
X0080751Y0250699D01*
X0080642Y0250786D01*
X0080535Y0250876D01*
X0080431Y0250970D01*
X0080330Y0251066D01*
X0080231Y0251166D01*
X0080135Y0251268D01*
X0080043Y0251372D01*
X0079953Y0251480D01*
X0079866Y0251590D01*
X0079783Y0251702D01*
X0079702Y0251816D01*
X0079625Y0251933D01*
X0079552Y0252052D01*
X0079481Y0252173D01*
X0079415Y0252296D01*
X0079351Y0252421D01*
X0079292Y0252547D01*
X0079236Y0252676D01*
X0079183Y0252805D01*
X0079135Y0252936D01*
X0079090Y0253069D01*
X0079049Y0253203D01*
X0079011Y0253338D01*
X0078978Y0253473D01*
X0078948Y0253610D01*
X0078922Y0253748D01*
X0078901Y0253886D01*
X0078883Y0254025D01*
X0078869Y0254164D01*
X0078859Y0254303D01*
X0078853Y0254443D01*
X0078851Y0254583D01*
X0281607Y0254583D02*
X0281609Y0254723D01*
X0281615Y0254863D01*
X0281625Y0255002D01*
X0281639Y0255141D01*
X0281657Y0255280D01*
X0281678Y0255418D01*
X0281704Y0255556D01*
X0281734Y0255693D01*
X0281767Y0255828D01*
X0281805Y0255963D01*
X0281846Y0256097D01*
X0281891Y0256230D01*
X0281939Y0256361D01*
X0281992Y0256490D01*
X0282048Y0256619D01*
X0282107Y0256745D01*
X0282171Y0256870D01*
X0282237Y0256993D01*
X0282308Y0257114D01*
X0282381Y0257233D01*
X0282458Y0257350D01*
X0282539Y0257464D01*
X0282622Y0257576D01*
X0282709Y0257686D01*
X0282799Y0257794D01*
X0282891Y0257898D01*
X0282987Y0258000D01*
X0283086Y0258100D01*
X0283187Y0258196D01*
X0283291Y0258290D01*
X0283398Y0258380D01*
X0283507Y0258467D01*
X0283619Y0258552D01*
X0283733Y0258633D01*
X0283849Y0258711D01*
X0283967Y0258785D01*
X0284088Y0258856D01*
X0284210Y0258924D01*
X0284335Y0258988D01*
X0284461Y0259049D01*
X0284588Y0259106D01*
X0284718Y0259159D01*
X0284849Y0259209D01*
X0284981Y0259254D01*
X0285114Y0259297D01*
X0285249Y0259335D01*
X0285384Y0259369D01*
X0285521Y0259400D01*
X0285658Y0259427D01*
X0285796Y0259449D01*
X0285935Y0259468D01*
X0286074Y0259483D01*
X0286213Y0259494D01*
X0286353Y0259501D01*
X0286493Y0259504D01*
X0286633Y0259503D01*
X0286773Y0259498D01*
X0286912Y0259489D01*
X0287052Y0259476D01*
X0287191Y0259459D01*
X0287329Y0259438D01*
X0287467Y0259414D01*
X0287604Y0259385D01*
X0287740Y0259353D01*
X0287875Y0259316D01*
X0288009Y0259276D01*
X0288142Y0259232D01*
X0288273Y0259184D01*
X0288403Y0259133D01*
X0288532Y0259078D01*
X0288659Y0259019D01*
X0288784Y0258956D01*
X0288907Y0258891D01*
X0289029Y0258821D01*
X0289148Y0258748D01*
X0289266Y0258672D01*
X0289381Y0258593D01*
X0289494Y0258510D01*
X0289604Y0258424D01*
X0289712Y0258335D01*
X0289817Y0258243D01*
X0289920Y0258148D01*
X0290020Y0258050D01*
X0290117Y0257950D01*
X0290211Y0257846D01*
X0290303Y0257740D01*
X0290391Y0257632D01*
X0290476Y0257521D01*
X0290558Y0257407D01*
X0290637Y0257291D01*
X0290712Y0257174D01*
X0290784Y0257054D01*
X0290852Y0256932D01*
X0290917Y0256808D01*
X0290979Y0256682D01*
X0291037Y0256555D01*
X0291091Y0256426D01*
X0291142Y0256295D01*
X0291188Y0256163D01*
X0291231Y0256030D01*
X0291271Y0255896D01*
X0291306Y0255761D01*
X0291338Y0255624D01*
X0291365Y0255487D01*
X0291389Y0255349D01*
X0291409Y0255211D01*
X0291425Y0255072D01*
X0291437Y0254932D01*
X0291445Y0254793D01*
X0291449Y0254653D01*
X0291449Y0254513D01*
X0291445Y0254373D01*
X0291437Y0254234D01*
X0291425Y0254094D01*
X0291409Y0253955D01*
X0291389Y0253817D01*
X0291365Y0253679D01*
X0291338Y0253542D01*
X0291306Y0253405D01*
X0291271Y0253270D01*
X0291231Y0253136D01*
X0291188Y0253003D01*
X0291142Y0252871D01*
X0291091Y0252740D01*
X0291037Y0252611D01*
X0290979Y0252484D01*
X0290917Y0252358D01*
X0290852Y0252234D01*
X0290784Y0252112D01*
X0290712Y0251992D01*
X0290637Y0251875D01*
X0290558Y0251759D01*
X0290476Y0251645D01*
X0290391Y0251534D01*
X0290303Y0251426D01*
X0290211Y0251320D01*
X0290117Y0251216D01*
X0290020Y0251116D01*
X0289920Y0251018D01*
X0289817Y0250923D01*
X0289712Y0250831D01*
X0289604Y0250742D01*
X0289494Y0250656D01*
X0289381Y0250573D01*
X0289266Y0250494D01*
X0289148Y0250418D01*
X0289029Y0250345D01*
X0288907Y0250275D01*
X0288784Y0250210D01*
X0288659Y0250147D01*
X0288532Y0250088D01*
X0288403Y0250033D01*
X0288273Y0249982D01*
X0288142Y0249934D01*
X0288009Y0249890D01*
X0287875Y0249850D01*
X0287740Y0249813D01*
X0287604Y0249781D01*
X0287467Y0249752D01*
X0287329Y0249728D01*
X0287191Y0249707D01*
X0287052Y0249690D01*
X0286912Y0249677D01*
X0286773Y0249668D01*
X0286633Y0249663D01*
X0286493Y0249662D01*
X0286353Y0249665D01*
X0286213Y0249672D01*
X0286074Y0249683D01*
X0285935Y0249698D01*
X0285796Y0249717D01*
X0285658Y0249739D01*
X0285521Y0249766D01*
X0285384Y0249797D01*
X0285249Y0249831D01*
X0285114Y0249869D01*
X0284981Y0249912D01*
X0284849Y0249957D01*
X0284718Y0250007D01*
X0284588Y0250060D01*
X0284461Y0250117D01*
X0284335Y0250178D01*
X0284210Y0250242D01*
X0284088Y0250310D01*
X0283967Y0250381D01*
X0283849Y0250455D01*
X0283733Y0250533D01*
X0283619Y0250614D01*
X0283507Y0250699D01*
X0283398Y0250786D01*
X0283291Y0250876D01*
X0283187Y0250970D01*
X0283086Y0251066D01*
X0282987Y0251166D01*
X0282891Y0251268D01*
X0282799Y0251372D01*
X0282709Y0251480D01*
X0282622Y0251590D01*
X0282539Y0251702D01*
X0282458Y0251816D01*
X0282381Y0251933D01*
X0282308Y0252052D01*
X0282237Y0252173D01*
X0282171Y0252296D01*
X0282107Y0252421D01*
X0282048Y0252547D01*
X0281992Y0252676D01*
X0281939Y0252805D01*
X0281891Y0252936D01*
X0281846Y0253069D01*
X0281805Y0253203D01*
X0281767Y0253338D01*
X0281734Y0253473D01*
X0281704Y0253610D01*
X0281678Y0253748D01*
X0281657Y0253886D01*
X0281639Y0254025D01*
X0281625Y0254164D01*
X0281615Y0254303D01*
X0281609Y0254443D01*
X0281607Y0254583D01*
X0281607Y0183717D02*
X0281609Y0183857D01*
X0281615Y0183997D01*
X0281625Y0184136D01*
X0281639Y0184275D01*
X0281657Y0184414D01*
X0281678Y0184552D01*
X0281704Y0184690D01*
X0281734Y0184827D01*
X0281767Y0184962D01*
X0281805Y0185097D01*
X0281846Y0185231D01*
X0281891Y0185364D01*
X0281939Y0185495D01*
X0281992Y0185624D01*
X0282048Y0185753D01*
X0282107Y0185879D01*
X0282171Y0186004D01*
X0282237Y0186127D01*
X0282308Y0186248D01*
X0282381Y0186367D01*
X0282458Y0186484D01*
X0282539Y0186598D01*
X0282622Y0186710D01*
X0282709Y0186820D01*
X0282799Y0186928D01*
X0282891Y0187032D01*
X0282987Y0187134D01*
X0283086Y0187234D01*
X0283187Y0187330D01*
X0283291Y0187424D01*
X0283398Y0187514D01*
X0283507Y0187601D01*
X0283619Y0187686D01*
X0283733Y0187767D01*
X0283849Y0187845D01*
X0283967Y0187919D01*
X0284088Y0187990D01*
X0284210Y0188058D01*
X0284335Y0188122D01*
X0284461Y0188183D01*
X0284588Y0188240D01*
X0284718Y0188293D01*
X0284849Y0188343D01*
X0284981Y0188388D01*
X0285114Y0188431D01*
X0285249Y0188469D01*
X0285384Y0188503D01*
X0285521Y0188534D01*
X0285658Y0188561D01*
X0285796Y0188583D01*
X0285935Y0188602D01*
X0286074Y0188617D01*
X0286213Y0188628D01*
X0286353Y0188635D01*
X0286493Y0188638D01*
X0286633Y0188637D01*
X0286773Y0188632D01*
X0286912Y0188623D01*
X0287052Y0188610D01*
X0287191Y0188593D01*
X0287329Y0188572D01*
X0287467Y0188548D01*
X0287604Y0188519D01*
X0287740Y0188487D01*
X0287875Y0188450D01*
X0288009Y0188410D01*
X0288142Y0188366D01*
X0288273Y0188318D01*
X0288403Y0188267D01*
X0288532Y0188212D01*
X0288659Y0188153D01*
X0288784Y0188090D01*
X0288907Y0188025D01*
X0289029Y0187955D01*
X0289148Y0187882D01*
X0289266Y0187806D01*
X0289381Y0187727D01*
X0289494Y0187644D01*
X0289604Y0187558D01*
X0289712Y0187469D01*
X0289817Y0187377D01*
X0289920Y0187282D01*
X0290020Y0187184D01*
X0290117Y0187084D01*
X0290211Y0186980D01*
X0290303Y0186874D01*
X0290391Y0186766D01*
X0290476Y0186655D01*
X0290558Y0186541D01*
X0290637Y0186425D01*
X0290712Y0186308D01*
X0290784Y0186188D01*
X0290852Y0186066D01*
X0290917Y0185942D01*
X0290979Y0185816D01*
X0291037Y0185689D01*
X0291091Y0185560D01*
X0291142Y0185429D01*
X0291188Y0185297D01*
X0291231Y0185164D01*
X0291271Y0185030D01*
X0291306Y0184895D01*
X0291338Y0184758D01*
X0291365Y0184621D01*
X0291389Y0184483D01*
X0291409Y0184345D01*
X0291425Y0184206D01*
X0291437Y0184066D01*
X0291445Y0183927D01*
X0291449Y0183787D01*
X0291449Y0183647D01*
X0291445Y0183507D01*
X0291437Y0183368D01*
X0291425Y0183228D01*
X0291409Y0183089D01*
X0291389Y0182951D01*
X0291365Y0182813D01*
X0291338Y0182676D01*
X0291306Y0182539D01*
X0291271Y0182404D01*
X0291231Y0182270D01*
X0291188Y0182137D01*
X0291142Y0182005D01*
X0291091Y0181874D01*
X0291037Y0181745D01*
X0290979Y0181618D01*
X0290917Y0181492D01*
X0290852Y0181368D01*
X0290784Y0181246D01*
X0290712Y0181126D01*
X0290637Y0181009D01*
X0290558Y0180893D01*
X0290476Y0180779D01*
X0290391Y0180668D01*
X0290303Y0180560D01*
X0290211Y0180454D01*
X0290117Y0180350D01*
X0290020Y0180250D01*
X0289920Y0180152D01*
X0289817Y0180057D01*
X0289712Y0179965D01*
X0289604Y0179876D01*
X0289494Y0179790D01*
X0289381Y0179707D01*
X0289266Y0179628D01*
X0289148Y0179552D01*
X0289029Y0179479D01*
X0288907Y0179409D01*
X0288784Y0179344D01*
X0288659Y0179281D01*
X0288532Y0179222D01*
X0288403Y0179167D01*
X0288273Y0179116D01*
X0288142Y0179068D01*
X0288009Y0179024D01*
X0287875Y0178984D01*
X0287740Y0178947D01*
X0287604Y0178915D01*
X0287467Y0178886D01*
X0287329Y0178862D01*
X0287191Y0178841D01*
X0287052Y0178824D01*
X0286912Y0178811D01*
X0286773Y0178802D01*
X0286633Y0178797D01*
X0286493Y0178796D01*
X0286353Y0178799D01*
X0286213Y0178806D01*
X0286074Y0178817D01*
X0285935Y0178832D01*
X0285796Y0178851D01*
X0285658Y0178873D01*
X0285521Y0178900D01*
X0285384Y0178931D01*
X0285249Y0178965D01*
X0285114Y0179003D01*
X0284981Y0179046D01*
X0284849Y0179091D01*
X0284718Y0179141D01*
X0284588Y0179194D01*
X0284461Y0179251D01*
X0284335Y0179312D01*
X0284210Y0179376D01*
X0284088Y0179444D01*
X0283967Y0179515D01*
X0283849Y0179589D01*
X0283733Y0179667D01*
X0283619Y0179748D01*
X0283507Y0179833D01*
X0283398Y0179920D01*
X0283291Y0180010D01*
X0283187Y0180104D01*
X0283086Y0180200D01*
X0282987Y0180300D01*
X0282891Y0180402D01*
X0282799Y0180506D01*
X0282709Y0180614D01*
X0282622Y0180724D01*
X0282539Y0180836D01*
X0282458Y0180950D01*
X0282381Y0181067D01*
X0282308Y0181186D01*
X0282237Y0181307D01*
X0282171Y0181430D01*
X0282107Y0181555D01*
X0282048Y0181681D01*
X0281992Y0181810D01*
X0281939Y0181939D01*
X0281891Y0182070D01*
X0281846Y0182203D01*
X0281805Y0182337D01*
X0281767Y0182472D01*
X0281734Y0182607D01*
X0281704Y0182744D01*
X0281678Y0182882D01*
X0281657Y0183020D01*
X0281639Y0183159D01*
X0281625Y0183298D01*
X0281615Y0183437D01*
X0281609Y0183577D01*
X0281607Y0183717D01*
D11*
X0322945Y0152221D02*
X0322945Y0286079D01*
X0322947Y0286165D01*
X0322952Y0286251D01*
X0322962Y0286336D01*
X0322975Y0286421D01*
X0322992Y0286505D01*
X0323012Y0286589D01*
X0323036Y0286671D01*
X0323064Y0286752D01*
X0323095Y0286833D01*
X0323129Y0286911D01*
X0323167Y0286988D01*
X0323209Y0287064D01*
X0323253Y0287137D01*
X0323301Y0287208D01*
X0323352Y0287278D01*
X0323406Y0287345D01*
X0323462Y0287409D01*
X0323522Y0287471D01*
X0323584Y0287531D01*
X0323648Y0287587D01*
X0323715Y0287641D01*
X0323785Y0287692D01*
X0323856Y0287740D01*
X0323930Y0287784D01*
X0324005Y0287826D01*
X0324082Y0287864D01*
X0324160Y0287898D01*
X0324241Y0287929D01*
X0324322Y0287957D01*
X0324404Y0287981D01*
X0324488Y0288001D01*
X0324572Y0288018D01*
X0324657Y0288031D01*
X0324742Y0288041D01*
X0324828Y0288046D01*
X0324914Y0288048D01*
X0350504Y0288048D01*
X0350504Y0150252D02*
X0324914Y0150252D01*
X0324828Y0150254D01*
X0324742Y0150259D01*
X0324657Y0150269D01*
X0324572Y0150282D01*
X0324488Y0150299D01*
X0324404Y0150319D01*
X0324322Y0150343D01*
X0324241Y0150371D01*
X0324160Y0150402D01*
X0324082Y0150436D01*
X0324005Y0150474D01*
X0323930Y0150516D01*
X0323856Y0150560D01*
X0323785Y0150608D01*
X0323715Y0150659D01*
X0323648Y0150713D01*
X0323584Y0150769D01*
X0323522Y0150829D01*
X0323462Y0150891D01*
X0323406Y0150955D01*
X0323352Y0151022D01*
X0323301Y0151092D01*
X0323253Y0151163D01*
X0323209Y0151237D01*
X0323167Y0151312D01*
X0323129Y0151389D01*
X0323095Y0151467D01*
X0323064Y0151548D01*
X0323036Y0151629D01*
X0323012Y0151711D01*
X0322992Y0151795D01*
X0322975Y0151879D01*
X0322962Y0151964D01*
X0322952Y0152049D01*
X0322947Y0152135D01*
X0322945Y0152221D01*
X0350504Y0288048D02*
X0348767Y0292078D01*
X0346931Y0296064D01*
X0344999Y0300004D01*
X0342970Y0303896D01*
X0340846Y0307737D01*
X0338630Y0311524D01*
X0336321Y0315257D01*
X0333921Y0318931D01*
X0331432Y0322546D01*
X0328855Y0326098D01*
X0326192Y0329586D01*
X0323444Y0333009D01*
X0320613Y0336362D01*
X0317701Y0339646D01*
X0314709Y0342857D01*
X0311640Y0345993D01*
X0308495Y0349054D01*
X0305275Y0352037D01*
X0301984Y0354940D01*
X0298622Y0357761D01*
X0295193Y0360499D01*
X0291697Y0363153D01*
X0288137Y0365720D01*
X0284516Y0368198D01*
X0280835Y0370588D01*
X0277096Y0372887D01*
X0273302Y0375093D01*
X0269455Y0377206D01*
X0265558Y0379223D01*
X0261613Y0381145D01*
X0257621Y0382970D01*
X0253586Y0384696D01*
X0249510Y0386323D01*
X0245396Y0387849D01*
X0241245Y0389275D01*
X0237060Y0390598D01*
X0232845Y0391818D01*
X0228600Y0392935D01*
X0224330Y0393947D01*
X0220036Y0394854D01*
X0215721Y0395656D01*
X0211388Y0396352D01*
X0207039Y0396942D01*
X0202677Y0397424D01*
X0198305Y0397800D01*
X0193924Y0398069D01*
X0189538Y0398230D01*
X0185150Y0398284D01*
X0180762Y0398230D01*
X0176376Y0398069D01*
X0171995Y0397800D01*
X0167623Y0397424D01*
X0163261Y0396942D01*
X0158912Y0396352D01*
X0154579Y0395656D01*
X0150264Y0394854D01*
X0145970Y0393947D01*
X0141700Y0392935D01*
X0137455Y0391818D01*
X0133240Y0390598D01*
X0129055Y0389275D01*
X0124904Y0387849D01*
X0120790Y0386323D01*
X0116714Y0384696D01*
X0112679Y0382970D01*
X0108687Y0381145D01*
X0104742Y0379223D01*
X0100845Y0377206D01*
X0096998Y0375093D01*
X0093204Y0372887D01*
X0089465Y0370588D01*
X0085784Y0368198D01*
X0082163Y0365720D01*
X0078603Y0363153D01*
X0075107Y0360499D01*
X0071678Y0357761D01*
X0068316Y0354940D01*
X0065025Y0352037D01*
X0061805Y0349054D01*
X0058660Y0345993D01*
X0055591Y0342857D01*
X0052599Y0339646D01*
X0049687Y0336362D01*
X0046856Y0333009D01*
X0044108Y0329586D01*
X0041445Y0326098D01*
X0038868Y0322546D01*
X0036379Y0318931D01*
X0033979Y0315257D01*
X0031670Y0311524D01*
X0029454Y0307737D01*
X0027330Y0303896D01*
X0025301Y0300004D01*
X0023369Y0296064D01*
X0021533Y0292078D01*
X0019796Y0288048D01*
X0045386Y0288048D01*
X0045472Y0288046D01*
X0045558Y0288041D01*
X0045643Y0288031D01*
X0045728Y0288018D01*
X0045812Y0288001D01*
X0045896Y0287981D01*
X0045978Y0287957D01*
X0046059Y0287929D01*
X0046140Y0287898D01*
X0046218Y0287864D01*
X0046295Y0287826D01*
X0046371Y0287784D01*
X0046444Y0287740D01*
X0046515Y0287692D01*
X0046585Y0287641D01*
X0046652Y0287587D01*
X0046716Y0287531D01*
X0046778Y0287471D01*
X0046838Y0287409D01*
X0046894Y0287345D01*
X0046948Y0287278D01*
X0046999Y0287208D01*
X0047047Y0287137D01*
X0047091Y0287064D01*
X0047133Y0286988D01*
X0047171Y0286911D01*
X0047205Y0286833D01*
X0047236Y0286752D01*
X0047264Y0286671D01*
X0047288Y0286589D01*
X0047308Y0286505D01*
X0047325Y0286421D01*
X0047338Y0286336D01*
X0047348Y0286251D01*
X0047353Y0286165D01*
X0047355Y0286079D01*
X0047355Y0152221D01*
X0047353Y0152135D01*
X0047348Y0152049D01*
X0047338Y0151964D01*
X0047325Y0151879D01*
X0047308Y0151795D01*
X0047288Y0151711D01*
X0047264Y0151629D01*
X0047236Y0151548D01*
X0047205Y0151467D01*
X0047171Y0151389D01*
X0047133Y0151312D01*
X0047091Y0151237D01*
X0047047Y0151163D01*
X0046999Y0151092D01*
X0046948Y0151022D01*
X0046894Y0150955D01*
X0046838Y0150891D01*
X0046778Y0150829D01*
X0046716Y0150769D01*
X0046652Y0150713D01*
X0046585Y0150659D01*
X0046515Y0150608D01*
X0046444Y0150560D01*
X0046371Y0150516D01*
X0046295Y0150474D01*
X0046218Y0150436D01*
X0046140Y0150402D01*
X0046059Y0150371D01*
X0045978Y0150343D01*
X0045896Y0150319D01*
X0045812Y0150299D01*
X0045728Y0150282D01*
X0045643Y0150269D01*
X0045558Y0150259D01*
X0045472Y0150254D01*
X0045386Y0150252D01*
X0019796Y0150252D01*
X0021533Y0146222D01*
X0023369Y0142236D01*
X0025301Y0138296D01*
X0027330Y0134404D01*
X0029454Y0130563D01*
X0031670Y0126776D01*
X0033979Y0123043D01*
X0036379Y0119369D01*
X0038868Y0115754D01*
X0041445Y0112202D01*
X0044108Y0108714D01*
X0046856Y0105291D01*
X0049687Y0101938D01*
X0052599Y0098654D01*
X0055591Y0095443D01*
X0058660Y0092307D01*
X0061805Y0089246D01*
X0065025Y0086263D01*
X0068316Y0083360D01*
X0071678Y0080539D01*
X0075107Y0077801D01*
X0078603Y0075147D01*
X0082163Y0072580D01*
X0085784Y0070102D01*
X0089465Y0067712D01*
X0093204Y0065413D01*
X0096998Y0063207D01*
X0100845Y0061094D01*
X0104742Y0059077D01*
X0108687Y0057155D01*
X0112679Y0055330D01*
X0116714Y0053604D01*
X0120790Y0051977D01*
X0124904Y0050451D01*
X0129055Y0049025D01*
X0133240Y0047702D01*
X0137455Y0046482D01*
X0141700Y0045365D01*
X0145970Y0044353D01*
X0150264Y0043446D01*
X0154579Y0042644D01*
X0158912Y0041948D01*
X0163261Y0041358D01*
X0167623Y0040876D01*
X0171995Y0040500D01*
X0176376Y0040231D01*
X0180762Y0040070D01*
X0185150Y0040016D01*
X0189538Y0040070D01*
X0193924Y0040231D01*
X0198305Y0040500D01*
X0202677Y0040876D01*
X0207039Y0041358D01*
X0211388Y0041948D01*
X0215721Y0042644D01*
X0220036Y0043446D01*
X0224330Y0044353D01*
X0228600Y0045365D01*
X0232845Y0046482D01*
X0237060Y0047702D01*
X0241245Y0049025D01*
X0245396Y0050451D01*
X0249510Y0051977D01*
X0253586Y0053604D01*
X0257621Y0055330D01*
X0261613Y0057155D01*
X0265558Y0059077D01*
X0269455Y0061094D01*
X0273302Y0063207D01*
X0277096Y0065413D01*
X0280835Y0067712D01*
X0284516Y0070102D01*
X0288137Y0072580D01*
X0291697Y0075147D01*
X0295193Y0077801D01*
X0298622Y0080539D01*
X0301984Y0083360D01*
X0305275Y0086263D01*
X0308495Y0089246D01*
X0311640Y0092307D01*
X0314709Y0095443D01*
X0317701Y0098654D01*
X0320613Y0101938D01*
X0323444Y0105291D01*
X0326192Y0108714D01*
X0328855Y0112202D01*
X0331432Y0115754D01*
X0333921Y0119369D01*
X0336321Y0123043D01*
X0338630Y0126776D01*
X0340846Y0130563D01*
X0342970Y0134404D01*
X0344999Y0138296D01*
X0346931Y0142236D01*
X0348767Y0146222D01*
X0350504Y0150252D01*
D12*
X0295469Y0312527D02*
X0303821Y0320878D01*
X0303881Y0320940D01*
X0303937Y0321004D01*
X0303991Y0321071D01*
X0304042Y0321141D01*
X0304090Y0321212D01*
X0304134Y0321286D01*
X0304176Y0321361D01*
X0304214Y0321438D01*
X0304248Y0321516D01*
X0304279Y0321597D01*
X0304307Y0321678D01*
X0304331Y0321760D01*
X0304351Y0321844D01*
X0304368Y0321928D01*
X0304381Y0322013D01*
X0304391Y0322098D01*
X0304396Y0322184D01*
X0304398Y0322270D01*
X0304396Y0322356D01*
X0304391Y0322442D01*
X0304381Y0322527D01*
X0304368Y0322612D01*
X0304351Y0322696D01*
X0304331Y0322780D01*
X0304307Y0322862D01*
X0304279Y0322943D01*
X0304248Y0323024D01*
X0304214Y0323102D01*
X0304176Y0323179D01*
X0304134Y0323255D01*
X0304090Y0323328D01*
X0304042Y0323399D01*
X0303991Y0323469D01*
X0303937Y0323536D01*
X0303881Y0323600D01*
X0303821Y0323662D01*
X0275982Y0351501D01*
X0275920Y0351561D01*
X0275856Y0351617D01*
X0275789Y0351671D01*
X0275719Y0351722D01*
X0275648Y0351770D01*
X0275575Y0351814D01*
X0275499Y0351856D01*
X0275422Y0351894D01*
X0275344Y0351928D01*
X0275263Y0351959D01*
X0275182Y0351987D01*
X0275100Y0352011D01*
X0275016Y0352031D01*
X0274932Y0352048D01*
X0274847Y0352061D01*
X0274762Y0352071D01*
X0274676Y0352076D01*
X0274590Y0352078D01*
X0274504Y0352076D01*
X0274418Y0352071D01*
X0274333Y0352061D01*
X0274248Y0352048D01*
X0274164Y0352031D01*
X0274080Y0352011D01*
X0273998Y0351987D01*
X0273917Y0351959D01*
X0273836Y0351928D01*
X0273758Y0351894D01*
X0273681Y0351856D01*
X0273606Y0351814D01*
X0273532Y0351770D01*
X0273461Y0351722D01*
X0273391Y0351671D01*
X0273324Y0351617D01*
X0273260Y0351561D01*
X0273198Y0351501D01*
X0264846Y0343149D01*
X0264846Y0343150D02*
X0264786Y0343088D01*
X0264730Y0343024D01*
X0264676Y0342957D01*
X0264625Y0342887D01*
X0264577Y0342816D01*
X0264533Y0342743D01*
X0264491Y0342667D01*
X0264453Y0342590D01*
X0264419Y0342512D01*
X0264388Y0342431D01*
X0264360Y0342350D01*
X0264336Y0342268D01*
X0264316Y0342184D01*
X0264299Y0342100D01*
X0264286Y0342015D01*
X0264276Y0341930D01*
X0264271Y0341844D01*
X0264269Y0341758D01*
X0264271Y0341672D01*
X0264276Y0341586D01*
X0264286Y0341501D01*
X0264299Y0341416D01*
X0264316Y0341332D01*
X0264336Y0341248D01*
X0264360Y0341166D01*
X0264388Y0341085D01*
X0264419Y0341004D01*
X0264453Y0340926D01*
X0264491Y0340849D01*
X0264533Y0340774D01*
X0264577Y0340700D01*
X0264625Y0340629D01*
X0264676Y0340559D01*
X0264730Y0340492D01*
X0264786Y0340428D01*
X0264846Y0340366D01*
X0292685Y0312527D01*
X0292747Y0312467D01*
X0292811Y0312411D01*
X0292878Y0312357D01*
X0292948Y0312306D01*
X0293019Y0312258D01*
X0293093Y0312214D01*
X0293168Y0312172D01*
X0293245Y0312134D01*
X0293323Y0312100D01*
X0293404Y0312069D01*
X0293485Y0312041D01*
X0293567Y0312017D01*
X0293651Y0311997D01*
X0293735Y0311980D01*
X0293820Y0311967D01*
X0293905Y0311957D01*
X0293991Y0311952D01*
X0294077Y0311950D01*
X0294163Y0311952D01*
X0294249Y0311957D01*
X0294334Y0311967D01*
X0294419Y0311980D01*
X0294503Y0311997D01*
X0294587Y0312017D01*
X0294669Y0312041D01*
X0294750Y0312069D01*
X0294831Y0312100D01*
X0294909Y0312134D01*
X0294986Y0312172D01*
X0295062Y0312214D01*
X0295135Y0312258D01*
X0295206Y0312306D01*
X0295276Y0312357D01*
X0295343Y0312411D01*
X0295407Y0312467D01*
X0295469Y0312527D01*
X0206804Y0356945D02*
X0206804Y0368756D01*
X0206802Y0368842D01*
X0206797Y0368928D01*
X0206787Y0369013D01*
X0206774Y0369098D01*
X0206757Y0369182D01*
X0206737Y0369266D01*
X0206713Y0369348D01*
X0206685Y0369429D01*
X0206654Y0369510D01*
X0206620Y0369588D01*
X0206582Y0369665D01*
X0206540Y0369741D01*
X0206496Y0369814D01*
X0206448Y0369885D01*
X0206397Y0369955D01*
X0206343Y0370022D01*
X0206287Y0370086D01*
X0206227Y0370148D01*
X0206165Y0370208D01*
X0206101Y0370264D01*
X0206034Y0370318D01*
X0205964Y0370369D01*
X0205893Y0370417D01*
X0205820Y0370461D01*
X0205744Y0370503D01*
X0205667Y0370541D01*
X0205589Y0370575D01*
X0205508Y0370606D01*
X0205427Y0370634D01*
X0205345Y0370658D01*
X0205261Y0370678D01*
X0205177Y0370695D01*
X0205092Y0370708D01*
X0205007Y0370718D01*
X0204921Y0370723D01*
X0204835Y0370725D01*
X0165465Y0370725D01*
X0165379Y0370723D01*
X0165293Y0370718D01*
X0165208Y0370708D01*
X0165123Y0370695D01*
X0165039Y0370678D01*
X0164955Y0370658D01*
X0164873Y0370634D01*
X0164792Y0370606D01*
X0164711Y0370575D01*
X0164633Y0370541D01*
X0164556Y0370503D01*
X0164481Y0370461D01*
X0164407Y0370417D01*
X0164336Y0370369D01*
X0164266Y0370318D01*
X0164199Y0370264D01*
X0164135Y0370208D01*
X0164073Y0370148D01*
X0164013Y0370086D01*
X0163957Y0370022D01*
X0163903Y0369955D01*
X0163852Y0369885D01*
X0163804Y0369814D01*
X0163760Y0369741D01*
X0163718Y0369665D01*
X0163680Y0369588D01*
X0163646Y0369510D01*
X0163615Y0369429D01*
X0163587Y0369348D01*
X0163563Y0369266D01*
X0163543Y0369182D01*
X0163526Y0369098D01*
X0163513Y0369013D01*
X0163503Y0368928D01*
X0163498Y0368842D01*
X0163496Y0368756D01*
X0163496Y0356945D01*
X0163498Y0356859D01*
X0163503Y0356773D01*
X0163513Y0356688D01*
X0163526Y0356603D01*
X0163543Y0356519D01*
X0163563Y0356435D01*
X0163587Y0356353D01*
X0163615Y0356272D01*
X0163646Y0356191D01*
X0163680Y0356113D01*
X0163718Y0356036D01*
X0163760Y0355961D01*
X0163804Y0355887D01*
X0163852Y0355816D01*
X0163903Y0355746D01*
X0163957Y0355679D01*
X0164013Y0355615D01*
X0164073Y0355553D01*
X0164135Y0355493D01*
X0164199Y0355437D01*
X0164266Y0355383D01*
X0164336Y0355332D01*
X0164407Y0355284D01*
X0164481Y0355240D01*
X0164556Y0355198D01*
X0164633Y0355160D01*
X0164711Y0355126D01*
X0164792Y0355095D01*
X0164873Y0355067D01*
X0164955Y0355043D01*
X0165039Y0355023D01*
X0165123Y0355006D01*
X0165208Y0354993D01*
X0165293Y0354983D01*
X0165379Y0354978D01*
X0165465Y0354976D01*
X0165465Y0354977D02*
X0204835Y0354977D01*
X0204835Y0354976D02*
X0204921Y0354978D01*
X0205007Y0354983D01*
X0205092Y0354993D01*
X0205177Y0355006D01*
X0205261Y0355023D01*
X0205345Y0355043D01*
X0205427Y0355067D01*
X0205508Y0355095D01*
X0205589Y0355126D01*
X0205667Y0355160D01*
X0205744Y0355198D01*
X0205820Y0355240D01*
X0205893Y0355284D01*
X0205964Y0355332D01*
X0206034Y0355383D01*
X0206101Y0355437D01*
X0206165Y0355493D01*
X0206227Y0355553D01*
X0206287Y0355615D01*
X0206343Y0355679D01*
X0206397Y0355746D01*
X0206448Y0355816D01*
X0206496Y0355887D01*
X0206540Y0355961D01*
X0206582Y0356036D01*
X0206620Y0356113D01*
X0206654Y0356191D01*
X0206685Y0356272D01*
X0206713Y0356353D01*
X0206737Y0356435D01*
X0206757Y0356519D01*
X0206774Y0356603D01*
X0206787Y0356688D01*
X0206797Y0356773D01*
X0206802Y0356859D01*
X0206804Y0356945D01*
X0105067Y0342740D02*
X0096715Y0351092D01*
X0096653Y0351152D01*
X0096589Y0351208D01*
X0096522Y0351262D01*
X0096452Y0351313D01*
X0096381Y0351361D01*
X0096308Y0351405D01*
X0096232Y0351447D01*
X0096155Y0351485D01*
X0096077Y0351519D01*
X0095996Y0351550D01*
X0095915Y0351578D01*
X0095833Y0351602D01*
X0095749Y0351622D01*
X0095665Y0351639D01*
X0095580Y0351652D01*
X0095495Y0351662D01*
X0095409Y0351667D01*
X0095323Y0351669D01*
X0095237Y0351667D01*
X0095151Y0351662D01*
X0095066Y0351652D01*
X0094981Y0351639D01*
X0094897Y0351622D01*
X0094813Y0351602D01*
X0094731Y0351578D01*
X0094650Y0351550D01*
X0094569Y0351519D01*
X0094491Y0351485D01*
X0094414Y0351447D01*
X0094339Y0351405D01*
X0094265Y0351361D01*
X0094194Y0351313D01*
X0094124Y0351262D01*
X0094057Y0351208D01*
X0093993Y0351152D01*
X0093931Y0351092D01*
X0066092Y0323253D01*
X0066032Y0323191D01*
X0065976Y0323127D01*
X0065922Y0323060D01*
X0065871Y0322990D01*
X0065823Y0322919D01*
X0065779Y0322846D01*
X0065737Y0322770D01*
X0065699Y0322693D01*
X0065665Y0322615D01*
X0065634Y0322534D01*
X0065606Y0322453D01*
X0065582Y0322371D01*
X0065562Y0322287D01*
X0065545Y0322203D01*
X0065532Y0322118D01*
X0065522Y0322033D01*
X0065517Y0321947D01*
X0065515Y0321861D01*
X0065517Y0321775D01*
X0065522Y0321689D01*
X0065532Y0321604D01*
X0065545Y0321519D01*
X0065562Y0321435D01*
X0065582Y0321351D01*
X0065606Y0321269D01*
X0065634Y0321188D01*
X0065665Y0321107D01*
X0065699Y0321029D01*
X0065737Y0320952D01*
X0065779Y0320877D01*
X0065823Y0320803D01*
X0065871Y0320732D01*
X0065922Y0320662D01*
X0065976Y0320595D01*
X0066032Y0320531D01*
X0066092Y0320469D01*
X0074444Y0312117D01*
X0074506Y0312057D01*
X0074570Y0312001D01*
X0074637Y0311947D01*
X0074707Y0311896D01*
X0074778Y0311848D01*
X0074852Y0311804D01*
X0074927Y0311762D01*
X0075004Y0311724D01*
X0075082Y0311690D01*
X0075163Y0311659D01*
X0075244Y0311631D01*
X0075326Y0311607D01*
X0075410Y0311587D01*
X0075494Y0311570D01*
X0075579Y0311557D01*
X0075664Y0311547D01*
X0075750Y0311542D01*
X0075836Y0311540D01*
X0075922Y0311542D01*
X0076008Y0311547D01*
X0076093Y0311557D01*
X0076178Y0311570D01*
X0076262Y0311587D01*
X0076346Y0311607D01*
X0076428Y0311631D01*
X0076509Y0311659D01*
X0076590Y0311690D01*
X0076668Y0311724D01*
X0076745Y0311762D01*
X0076821Y0311804D01*
X0076894Y0311848D01*
X0076965Y0311896D01*
X0077035Y0311947D01*
X0077102Y0312001D01*
X0077166Y0312057D01*
X0077228Y0312117D01*
X0105067Y0339956D01*
X0105127Y0340018D01*
X0105183Y0340082D01*
X0105237Y0340149D01*
X0105288Y0340219D01*
X0105336Y0340290D01*
X0105380Y0340364D01*
X0105422Y0340439D01*
X0105460Y0340516D01*
X0105494Y0340594D01*
X0105525Y0340675D01*
X0105553Y0340756D01*
X0105577Y0340838D01*
X0105597Y0340922D01*
X0105614Y0341006D01*
X0105627Y0341091D01*
X0105637Y0341176D01*
X0105642Y0341262D01*
X0105644Y0341348D01*
X0105642Y0341434D01*
X0105637Y0341520D01*
X0105627Y0341605D01*
X0105614Y0341690D01*
X0105597Y0341774D01*
X0105577Y0341858D01*
X0105553Y0341940D01*
X0105525Y0342021D01*
X0105494Y0342102D01*
X0105460Y0342180D01*
X0105422Y0342257D01*
X0105380Y0342333D01*
X0105336Y0342406D01*
X0105288Y0342477D01*
X0105237Y0342547D01*
X0105183Y0342614D01*
X0105127Y0342678D01*
X0105067Y0342740D01*
D13*
X0161331Y0077418D03*
X0178654Y0077418D03*
X0191646Y0077418D03*
X0208969Y0077418D03*
D14*
X0220977Y0081355D03*
X0232000Y0081355D03*
X0234756Y0148284D03*
X0245780Y0148284D03*
X0149323Y0081355D03*
X0138300Y0081355D03*
X0135544Y0148284D03*
X0124520Y0148284D03*
D15*
X0052953Y0140410D03*
X0052953Y0130567D03*
X0041756Y0130567D03*
X0041756Y0140410D03*
X0317347Y0140410D03*
X0317347Y0130567D03*
X0328544Y0130567D03*
X0328544Y0140410D03*
D16*
X0072945Y0100252D03*
X0072945Y0117575D03*
X0096567Y0117575D03*
X0096567Y0100252D03*
X0273733Y0100252D03*
X0273733Y0117575D03*
X0297355Y0117575D03*
X0297355Y0100252D03*
D17*
X0241489Y0115941D03*
X0236489Y0115941D03*
X0231489Y0115941D03*
X0226489Y0115941D03*
X0226489Y0138441D03*
X0231489Y0138441D03*
X0236489Y0138441D03*
X0241489Y0138441D03*
X0143063Y0138441D03*
X0138063Y0138441D03*
X0133063Y0138441D03*
X0128063Y0138441D03*
X0128063Y0115941D03*
X0133063Y0115941D03*
X0138063Y0115941D03*
X0143063Y0115941D03*
D18*
X0141843Y0106638D03*
X0132000Y0106638D03*
X0122158Y0106638D03*
X0112709Y0106638D03*
X0112709Y0095441D03*
X0122158Y0095441D03*
X0132000Y0095441D03*
X0141843Y0095441D03*
X0141843Y0065300D03*
X0141843Y0054103D03*
X0164481Y0050166D03*
X0172748Y0050166D03*
X0181016Y0050166D03*
X0189284Y0050166D03*
X0197552Y0050166D03*
X0205819Y0050166D03*
X0205819Y0061363D03*
X0197552Y0061363D03*
X0189284Y0061363D03*
X0181016Y0061363D03*
X0172748Y0061363D03*
X0164481Y0061363D03*
X0228457Y0065300D03*
X0228457Y0054103D03*
X0228457Y0095441D03*
X0238300Y0095441D03*
X0248142Y0095441D03*
X0257591Y0095441D03*
X0257591Y0106638D03*
X0248142Y0106638D03*
X0238300Y0106638D03*
X0228457Y0106638D03*
D19*
X0242433Y0079386D03*
X0265662Y0079386D03*
X0127867Y0079386D03*
X0104638Y0079386D03*
D20*
X0115465Y0123087D03*
X0115465Y0134111D03*
X0151685Y0065213D03*
X0151685Y0054189D03*
X0218615Y0054189D03*
X0218615Y0065213D03*
X0254835Y0123087D03*
X0254835Y0134111D03*
D21*
X0209953Y0121315D03*
X0200898Y0121315D03*
X0191843Y0121315D03*
X0178457Y0121315D03*
X0169402Y0121315D03*
X0160347Y0121315D03*
D22*
X0169402Y0096512D03*
X0200898Y0096512D03*
D23*
X0309166Y0290016D03*
X0309166Y0297890D03*
X0234363Y0341197D03*
X0234363Y0349071D03*
X0224520Y0349071D03*
X0224520Y0341197D03*
X0145780Y0341197D03*
X0145780Y0349071D03*
X0135937Y0349071D03*
X0135937Y0341197D03*
X0061134Y0297890D03*
X0061134Y0290016D03*
D24*
X0061134Y0308520D03*
X0069008Y0308520D03*
X0301292Y0308520D03*
X0309166Y0308520D03*
M02*
