%
M48
M72
T01C0.02400
T02C0.03150
T03C0.03543
T04C0.03937
T05C0.04000
T06C0.09843
%
T01
X52850Y118950
X138250Y74050
X148850Y96550
X161331Y83722
X169450Y87850
X167750Y69700
X159550Y69700
X183850Y69700
X199950Y69700
X182950Y102550
X160250Y111850
X178350Y128950
X169950Y133150
X193250Y153750
X195750Y174950
X218150Y129350
X224250Y129450
X251607Y81294
X250550Y290150
X205350Y321850
X200150Y317950
X134950Y311350
X135836Y293964
T02
X135937Y364977
X145780Y364977
X145780Y374977
X135937Y374977
X224520Y374977
X234363Y374977
X234363Y364977
X224520Y364977
X322630Y302615
X322630Y293953
X332630Y293953
X332630Y302615
X47670Y302615
X47670Y293953
X37670Y293953
X37670Y302615
T03
X120150Y327890
X130150Y327890
X130150Y317890
X140150Y327890
X150150Y327890
X150150Y317890
X160150Y317890
X170150Y317890
X170150Y327890
X160150Y327890
X180150Y327890
X190150Y327890
X200150Y327890
X210150Y327890
X220150Y327890
X230150Y327890
X240150Y327890
X250150Y327890
X250150Y267890
X240150Y267890
X230150Y267890
X220150Y267890
X210150Y267890
X200150Y267890
X190150Y267890
X180150Y267890
X170150Y267890
X160150Y267890
X150150Y267890
X140150Y267890
X130150Y267890
X120150Y267890
T04
X111050Y302450
X198507Y285594
X271877Y281897
X191850Y129279
X221150Y73850
T05
X273575Y134347
X283575Y134347
X293575Y134347
X247552Y165213
X237552Y165213
X227552Y165213
X217552Y165213
X207552Y165213
X197552Y165213
X195150Y142378
X185150Y142378
X175150Y142378
X165150Y142378
X155150Y142378
X152748Y165213
X142748Y165213
X132748Y165213
X122748Y165213
X96725Y156158
X86725Y156158
X76725Y156158
X76725Y134347
X86725Y134347
X96725Y134347
X162748Y165213
X172748Y165213
X205150Y142378
X215150Y142378
X92152Y278220
X82152Y278220
X72152Y278220
X62152Y278220
X72984Y295961
X80055Y303032
X87126Y310103
X94197Y317174
X101268Y324245
X108339Y331316
X140150Y302473
X150150Y302473
X160150Y302473
X170150Y302473
X180150Y302473
X190150Y302473
X200150Y302473
X210150Y302473
X220150Y302473
X230150Y302473
X261961Y331316
X269032Y324245
X276103Y317174
X283174Y310103
X290245Y303032
X297316Y295961
X210150Y345134
X200150Y345134
X190150Y345134
X180150Y345134
X170150Y345134
X160150Y345134
T06
X118221Y347496
X252079Y347496
X243024Y60882
X127276Y60882
M30
